<svg xmlns="http://www.w3.org/2000/svg" viewBox="0 0 48 48" fill="none">
  <title>Runa Hafiza Mark Micro Mono</title>
  <path d="M24 6.5c3.1 0 5.5 2.4 5.5 5.5s-2.4 5.5-5.5 5.5-5.5-2.4-5.5-5.5 2.4-5.5 5.5-5.5Z" fill="currentColor"/>
  <path d="M33.2 11.8c2.9.2 5 2.7 4.8 5.5-.2 2.9-2.7 5-5.5 4.8-2.9-.2-5-2.7-4.8-5.5.2-2.9 2.6-5 5.5-4.8Z" fill="currentColor"/>
  <path d="M34.4 26.8c2.5 1.4 3.3 4.5 2 7s-4.5 3.3-7 2c-2.5-1.4-3.3-4.5-2-7 1.4-2.5 4.5-3.4 7-2Z" fill="currentColor"/>
  <path d="M24.2 31c2.8 0 5.2 2.3 5.2 5.2s-2.3 5.2-5.2 5.2-5.2-2.3-5.2-5.2 2.3-5.2 5.2-5.2Z" fill="currentColor"/>
  <path d="M13.6 26.8c2.5-1.3 5.6-.5 7 2 1.4 2.5.5 5.6-2 7-2.5 1.3-5.6.5-7-2-1.4-2.5-.5-5.6 2-7Z" fill="currentColor"/>
  <path d="M14.8 11.8c2.8-.2 5.3 1.9 5.5 4.8.2 2.9-1.9 5.3-4.8 5.5-2.8.2-5.3-1.9-5.5-4.8-.2-2.8 1.9-5.3 4.8-5.5Z" fill="currentColor"/>
</svg>
