<svg xmlns="http://www.w3.org/2000/svg" viewBox="0 0 48 48" fill="none">
  <title>Runa Hafiza Mark Bold Mono</title>
  <path d="M24 3.4c4.5 0 8.1 3.6 8.1 8.1s-3.6 8.1-8.1 8.1-8.1-3.6-8.1-8.1 3.6-8.1 8.1-8.1Z" fill="currentColor"/>
  <path d="M34.3 9.6c4.3.3 7.5 3.9 7.2 8.2-.3 4.3-3.9 7.5-8.2 7.2-4.3-.3-7.5-3.9-7.2-8.2.3-4.3 3.9-7.5 8.2-7.2Z" fill="currentColor"/>
  <path d="M35.6 26.4c3.6 2 4.9 6.6 2.9 10.3-2 3.6-6.6 4.9-10.3 2.9-3.6-2-4.9-6.6-2.9-10.3 2-3.6 6.6-4.9 10.3-2.9Z" fill="currentColor"/>
  <path d="M24 29.8c4.5 0 8.1 3.6 8.1 8.1S28.5 46 24 46s-8.1-3.6-8.1-8.1 3.6-8.1 8.1-8.1Z" fill="currentColor"/>
  <path d="M12.4 26.4c3.6-2 8.3-.7 10.3 2.9 2 3.6.7 8.3-2.9 10.3-3.6 2-8.3.7-10.3-2.9-2-3.6-.7-8.3 2.9-10.3Z" fill="currentColor"/>
  <path d="M13.7 9.6c4.3-.3 7.9 2.9 8.2 7.2.3 4.3-2.9 7.9-7.2 8.2-4.3.3-7.9-2.9-8.2-7.2-.3-4.3 2.9-7.9 7.2-8.2Z" fill="currentColor"/>
</svg>
