<svg xmlns="http://www.w3.org/2000/svg" viewBox="0 0 48 48" fill="none">
  <title>Runa Hafiza Mark Regular Brand</title>
  <path d="M24 4.2c3.9 0 7 3.2 7 7s-3.2 7-7 7-7-3.2-7-7 3.2-7 7-7Z" fill="#E0805C"/>
  <path d="M34 10.1c3.8.2 6.7 3.4 6.4 7.2-.2 3.8-3.4 6.6-7.2 6.4-3.8-.2-6.6-3.4-6.4-7.2.2-3.8 3.4-6.7 7.2-6.4Z" fill="#F4A876" opacity=".94"/>
  <path d="M35 27c3.2 1.8 4.2 5.8 2.4 9-1.8 3.2-5.8 4.2-9 2.4-3.2-1.8-4.2-5.8-2.4-9 1.8-3.2 5.8-4.2 9-2.4Z" fill="#9A9273" opacity=".92"/>
  <path d="M24 30c3.9 0 7 3.1 7 7s-3.1 7-7 7-7-3.1-7-7 3.1-7 7-7Z" fill="#E0805C" opacity=".9"/>
  <path d="M13 27c3.2-1.8 7.2-.8 9 2.4 1.8 3.2.8 7.2-2.4 9-3.2 1.8-7.2.8-9-2.4-1.8-3.2-.8-7.2 2.4-9Z" fill="#F4A876" opacity=".88"/>
  <path d="M14 10c3.8-.4 7 2.4 7.4 6.2.4 3.8-2.4 7-6.2 7.4-3.8.4-7-2.4-7.4-6.2-.4-3.8 2.4-7 6.2-7.4Z" fill="#8E896E" opacity=".9"/>
</svg>
