<svg xmlns="http://www.w3.org/2000/svg" viewBox="0 0 180 48" role="img" aria-labelledby="title">
	<title id="title">Runa</title>
	<defs>
		<linearGradient id="runaLogoMark" x1="8" x2="43" y1="5" y2="42" gradientUnits="userSpaceOnUse">
			<stop stop-color="#f59e0b" />
			<stop offset="1" stop-color="#ea580c" />
		</linearGradient>
	</defs>
	<rect width="48" height="48" rx="13" fill="#090d16" />
	<rect x="5" y="5" width="38" height="38" rx="11" fill="url(#runaLogoMark)" opacity=".14" />
	<path
		d="M16 12h11.1c7.6 0 12 4.3 12 11.1 0 5.8-3.2 9.4-8.9 10.5L40 42h-8.4l-8.2-7.9h-2V42H16V12Zm5.4 5.1v12h5.2c4.6 0 6.9-2 6.9-6 0-4.1-2.4-6-6.9-6h-5.2Z"
		fill="url(#runaLogoMark)"
	/>
	<path
		d="M62 35V14h8.5c6.4 0 10.5 4 10.5 10.4 0 6.5-4.1 10.6-10.5 10.6H62Zm4.5-3.9h3.8c3.8 0 6.1-2.5 6.1-6.7 0-4.1-2.3-6.5-6.1-6.5h-3.8v13.2ZM86.1 35V19.1h4.1v2.4c1.1-1.8 2.8-2.7 5.1-2.7 3.5 0 5.7 2.4 5.7 6.1V35h-4.2v-9.3c0-2-1.1-3.2-3-3.2-2.1 0-3.5 1.5-3.5 3.8V35h-4.2Zm28.6.3c-4.8 0-8.1-3.3-8.1-8.2 0-4.9 3.3-8.3 8.1-8.3 4.8 0 8.1 3.4 8.1 8.3s-3.3 8.2-8.1 8.2Zm0-3.6c2.4 0 4-1.8 4-4.6 0-2.9-1.6-4.7-4-4.7s-4 1.8-4 4.7c0 2.8 1.6 4.6 4 4.6Zm14.1 3.3V19.1h4.1v2.6c.9-1.8 2.4-2.8 4.4-2.8.6 0 1.1.1 1.5.2v3.9c-.5-.2-1.1-.2-1.8-.2-2.5 0-4 1.5-4 4.1V35h-4.2Z"
		fill="currentColor"
	/>
</svg>
